<?xml version="1.0" encoding="UTF-8"?>
<!--Generator: Apple Native CoreSVG 232.5-->
<!DOCTYPE svg
PUBLIC "-//W3C//DTD SVG 1.1//EN"
       "http://www.w3.org/Graphics/SVG/1.1/DTD/svg11.dtd">
<svg version="1.1" xmlns="http://www.w3.org/2000/svg" xmlns:xlink="http://www.w3.org/1999/xlink" width="28.3594" height="35.2295">
 <g>
  <rect height="35.2295" opacity="0" width="28.3594" x="0" y="0"/>
  <path d="M9.84375 27.9053C10.4004 27.9053 10.7666 27.5537 10.752 27.041L10.2979 11.3672C10.2832 10.8545 9.91699 10.5176 9.38965 10.5176C8.83301 10.5176 8.4668 10.8691 8.48145 11.3818L8.9209 27.041C8.93555 27.5684 9.30176 27.9053 9.84375 27.9053ZM14.1797 27.9053C14.7363 27.9053 15.1318 27.5537 15.1318 27.041L15.1318 11.3818C15.1318 10.8691 14.7363 10.5176 14.1797 10.5176C13.623 10.5176 13.2422 10.8691 13.2422 11.3818L13.2422 27.041C13.2422 27.5537 13.623 27.9053 14.1797 27.9053ZM18.5303 27.9053C19.0576 27.9053 19.4238 27.5684 19.4385 27.041L19.8779 11.3818C19.8926 10.8691 19.5264 10.5176 18.9697 10.5176C18.4424 10.5176 18.0762 10.8545 18.0615 11.3818L17.6221 27.041C17.6074 27.5537 17.9736 27.9053 18.5303 27.9053ZM7.74902 6.69434L10.0781 6.69434L10.0781 3.55957C10.0781 2.72461 10.6641 2.18262 11.543 2.18262L16.7871 2.18262C17.666 2.18262 18.252 2.72461 18.252 3.55957L18.252 6.69434L20.5811 6.69434L20.5811 3.41309C20.5811 1.28906 19.2041 0 16.9482 0L11.3818 0C9.12598 0 7.74902 1.28906 7.74902 3.41309ZM1.09863 7.86621L27.2754 7.86621C27.876 7.86621 28.3594 7.35352 28.3594 6.75293C28.3594 6.15234 27.876 5.6543 27.2754 5.6543L1.09863 5.6543C0.512695 5.6543 0 6.15234 0 6.75293C0 7.36816 0.512695 7.86621 1.09863 7.86621ZM7.4707 32.6221L20.9033 32.6221C22.998 32.6221 24.4043 31.2598 24.5068 29.165L25.5322 7.58789L23.1738 7.58789L22.1924 28.916C22.1631 29.7949 21.5332 30.4102 20.6689 30.4102L7.67578 30.4102C6.84082 30.4102 6.21094 29.7803 6.16699 28.916L5.12695 7.58789L2.82715 7.58789L3.86719 29.1797C3.96973 31.2744 5.34668 32.6221 7.4707 32.6221Z" fill="#000000" fill-opacity="0.85"/>
 </g>
</svg>
