<?xml version="1.0" encoding="UTF-8"?>
<!--Generator: Apple Native CoreSVG 232.5-->
<!DOCTYPE svg
PUBLIC "-//W3C//DTD SVG 1.1//EN"
       "http://www.w3.org/Graphics/SVG/1.1/DTD/svg11.dtd">
<svg version="1.1" xmlns="http://www.w3.org/2000/svg" xmlns:xlink="http://www.w3.org/1999/xlink" width="38.1587" height="38.1669">
 <g>
  <rect height="38.1669" opacity="0" width="38.1587" x="0" y="0"/>
  <path d="M19.0714 38.1428C29.5118 38.1428 38.1587 29.5118 38.1587 19.0714C38.1587 8.63097 29.496 0 19.0556 0C8.62267 0 0 8.63097 0 19.0714C0 29.5118 8.63852 38.1428 19.0714 38.1428ZM19.0714 35.4215C10.0233 35.4215 2.74466 28.1354 2.74466 19.0714C2.74466 10.0075 10.0075 2.72129 19.0556 2.72129C28.1195 2.72129 35.4215 10.0075 35.4215 19.0714C35.4215 28.1354 28.1354 35.4215 19.0714 35.4215ZM31.9592 31.451L31.9117 31.2678C30.8938 28.5363 25.9427 25.4368 19.0714 25.4368C12.2167 25.4368 7.28145 28.528 6.24698 31.2429L6.1995 31.451C9.58312 34.8294 15.1137 36.8515 19.0797 36.8515C23.0781 36.8515 28.5174 34.8626 31.9592 31.451ZM19.0714 22.219C22.7061 22.2507 25.5356 19.1467 25.5356 15.0943C25.5356 11.2832 22.6813 8.11439 19.0714 8.11439C15.4774 8.11439 12.5989 11.2832 12.623 15.0943C12.6388 19.1467 15.4367 22.1874 19.0714 22.219Z" fill="#000000" fill-opacity="0.85"/>
 </g>
</svg>
